<?xml version="1.0" encoding="utf-8"?>
<!-- Generator: Adobe Illustrator 19.2.1, SVG Export Plug-In . SVG Version: 6.00 Build 0)  -->
<svg version="1.1" id="Layer_1" xmlns="http://www.w3.org/2000/svg" xmlns:xlink="http://www.w3.org/1999/xlink" x="0px" y="0px"
	 viewBox="0 0 289.3 104.3" style="enable-background:new 0 0 289.3 104.3;" xml:space="preserve">
<style type="text/css">
	.st0{fill-rule:evenodd;clip-rule:evenodd;fill:#CCA12C;}
</style>
<g>
	<g>
		<polygon points="139.8,35.8 172.9,103.7 190.3,103.7 190.3,0.5 172.9,0.5 172.9,68 139.8,0.5 122.4,0.5 122.4,103.7 139.8,103.7 
					"/>
		<path d="M264.7,52.1V0.5h-17.4v51.6v20.4c-0.4,8.3-8.5,14.1-16.9,14.2c-7.9,0.2-15.9-6-16.2-14.2V52h-17.4v20.7
			c0,19.2,18.4,31,33.6,31.1c19.8,0.3,34.2-18.4,34.3-31.2V52.1z"/>
		<polygon points="115.7,86.3 94.5,86.3 94.5,70 115.7,70 115.7,52.6 94.4,52.6 94.4,18.4 115.7,18.4 115.7,1 94.4,1 77,1 77,18.4 
			77,103.7 115.7,103.7 		"/>
		<path d="M52.2,103.7h17.4V52.2H52.2v34.1c-17.6-0.3-34.1-12.8-34.3-33c-0.3-20.8,16.3-34.2,33.6-35V0.8c-27.8-0.1-51,24.5-51,52.3
			C0.7,83.4,28.8,103.9,52.2,103.7z"/>
		<polygon points="271.4,0.5 271.4,103.7 288.8,103.7 288.8,55.2 288.8,0.5 		"/>
	</g>
	<path class="st0" d="M260,12.5L260,12.5c2.6-1.5,4.7-2.5,6.2-3.1c1.5-0.6,2.7-1,3.7-1.3c1-0.3,1.8-0.7,2.4-1.1
		c0.6-0.4,1.2-0.8,1.8-1.1c0.6-0.3,1.2-0.4,2-0.4c0.7,0,1.2,0.1,1.5,0.2c0.3,0.2,0.5,0.4,0.7,0.9c0.2,0.4,0.2,0.9,0.2,1.3
		c0,0.4-0.1,0.8-0.2,1.1c-0.2,0.3-0.4,0.6-0.9,0.9c-0.4,0.3-0.8,0.4-1.1,0.4c-0.3,0-0.8-0.1-1.5-0.2c-0.7-0.2-1.5-0.2-2.2,0
		c-0.7,0.1-1.8,0.4-3.1,0.9c-1.3,0.4-2.7,0.9-4.2,1.5c-1.5,0.6-2.9,1.2-4.2,1.8c-1.3,0.6-2.4,1.1-3.3,1.5c-0.9,0.4-2,1-3.3,1.8
		c-1.3,0.7-2.6,1.5-3.7,2.2c-1.2,0.7-1.9,1-2.2,0.7c2.3-1.8,4-3,5.1-3.7c1-0.7,1.8-1.3,2.2-1.8c0.4-0.4,1.2-0.9,2.4-1.5
		C259.4,12.8,260,12.5,260,12.5L260,12.5z M273.2,23.5L273.2,23.5c-0.3-2.3-0.6-4-0.9-5.1c-0.3-1-0.4-1.7-0.4-2
		c0-0.3,0.1-0.7,0.2-1.3c0.1-0.6,0.4-1,0.7-1.1c0.3-0.2,0.6-0.2,0.9-0.2c0.3,0,0.6,0.1,0.9,0.2c0.3,0.1,0.5,0.4,0.7,0.7
		c0.2,0.3,0.3,0.7,0.4,1.3c0.1,0.6,0.3,1.3,0.4,2.2c0.1,0.9,0.3,1.8,0.4,2.9c0.1,1,0.3,1.6,0.4,1.8c0.2,0.2,0.7,0.1,1.8-0.2
		c1-0.3,1.8-0.4,2.4-0.4c0.6,0,1.1,0.1,1.5,0.2c0.4,0.2,0.8,0.5,1.1,1.1c0.3,0.6,0.4,1,0.4,1.3c0,0.3-0.1,0.6-0.2,0.9
		c-0.1,0.3-0.4,0.6-0.9,0.9c-0.4,0.3-1,0.6-1.8,0.9c-0.7,0.3-1.4,0.6-2,0.9c-0.6,0.3-0.9,0.5-0.9,0.7c0,0.2,0.1,0.6,0.2,1.3
		c0.2,0.7,0.4,1.8,0.9,3.1c0.4,1.3,0.9,2.6,1.3,3.7c0.4,1.2,1,2.2,1.5,3.1c0.6,0.9,1.1,1.5,1.5,1.8c0.4,0.3,0.7,0.4,0.9,0.4
		c0.2,0,0.4-0.1,0.9-0.2c0.4-0.1,0.8-0.2,1.1-0.2c0.3,1.2,0.4,2,0.4,2.4c0,0.4,0.1,0.9,0.2,1.3c0.2,0.4,0.2,0.8,0.2,1.1
		c0,0.3-0.1,0.7-0.2,1.1c-0.1,0.4-0.3,0.7-0.4,0.9c-0.2,0.1-0.4,0.2-0.7,0.2c-0.3,0-0.7-0.1-1.1-0.4c-0.4-0.3-0.9-0.7-1.3-1.3
		c-0.4-0.6-0.9-1.2-1.5-2c-0.6-0.7-1.2-1.5-1.8-2.4c-0.6-0.9-1.2-1.8-1.8-2.9c-0.6-1-1.2-2.1-1.8-3.3c-0.6-1.2-1-2.2-1.3-3.1
		c-0.3-0.9-0.5-1.7-0.7-2.4c-0.2-0.7-0.3-1.2-0.4-1.3c-0.2-0.1-0.4-0.1-0.7,0c-0.3,0.2-0.7,0.2-1.1,0.2c-0.4,0-1.1,0.2-2,0.7
		c-0.9,0.4-1.7,0.7-2.4,0.9c-0.7,0.1-1.2,0.3-1.5,0.4c-0.3,0.1-0.9,0.7-1.8,1.5c-0.9,0.9-1.7,1.7-2.4,2.4c-0.7,0.7-1.3,1.5-1.8,2.2
		c-0.4,0.7-1,1.6-1.5,2.6c-0.6,1-1,1.8-1.3,2.2c-0.3,0.4-0.6,0.8-0.9,1.1c-0.3,0.3-0.8,0.6-1.5,0.9c-0.7,0.3-1.3,0.4-1.8,0.4
		c-0.4,0-0.9-0.2-1.3-0.7c-0.4-0.4-0.7-1-0.9-1.5c-0.2-0.6-0.3-1-0.4-1.3c-0.2-0.3-0.2-0.6-0.2-0.9c0-0.3,0.1-0.6,0.2-0.9
		c0.1-0.3,0.1-0.7,0-1.1c-0.2-0.4-0.2-0.7-0.2-0.9c0-0.2,0.2-0.3,0.4-0.4c0.3-0.2,0.4-1,0.4-2.4c0-1.5,0-2.9,0-4.2
		c0-1.3,0.1-2.3,0.2-3.1c0.2-0.7,0.3-1.5,0.4-2.4c0.2-0.9,0.4-1.7,0.7-2.4c0.3-0.7,0.6-1.3,0.9-1.8c0.3-0.4,0.6-0.7,0.9-0.9
		c0.3-0.2,0.6-0.2,0.9-0.2c0.3,0,0.7,0.1,1.3,0.4c0.6,0.3,1,0.6,1.3,0.9c0.3,0.3,0.4,0.6,0.4,0.9c0,0.3-0.1,0.5-0.2,0.7
		c-0.1,0.2-0.4,0.4-0.9,0.7c-0.4,0.3-0.8,0.5-1.1,0.7c-0.3,0.1-0.6,0.6-0.9,1.3c-0.3,0.7-0.6,1.5-0.9,2.4c-0.3,0.9-0.5,1.9-0.7,3.1
		c-0.2,1.2-0.2,2.3-0.2,3.5c0,1.2,0.1,1.8,0.2,2c0.1,0.2,0.5,0.2,1.1,0c0.6-0.1,1.5-0.4,2.6-0.9c1.2-0.4,2.2-0.9,3.1-1.3
		c0.9-0.4,1.8-1,2.6-1.5c0.9-0.6,1.3-1,1.3-1.3c-1.2-0.3-1.8-0.5-2-0.7c-0.1-0.2-0.2-0.4-0.2-0.9c0-0.4,0.2-0.9,0.4-1.3
		c0.3-0.4,0.8-0.9,1.5-1.5c0.7-0.6,1.6-1.1,2.6-1.5c1-0.4,2.9-1.1,5.5-2C273.2,23.6,273.2,23.5,273.2,23.5L273.2,23.5z"/>
	<path class="st0" d="M73.4,59.5L73.4,59.5c1.8-0.6,2.9-0.9,3.3-1.1c0.4-0.1,1.2-0.4,2.4-0.7c1.2-0.3,2.2-0.5,3.1-0.7
		c0.9-0.1,1.8-0.3,2.6-0.4c0.9-0.1,1.5-0.3,1.8-0.4c0.3-0.2,0.7-0.2,1.1-0.2c0.4,0,0.9,0.2,1.5,0.4c0,0.3,0.1,0.5,0.2,0.7
		c0.2,0.2,0.2,0.3,0.2,0.4c0,0.2-0.1,0.3-0.2,0.4c-0.1,0.2-0.7,0.3-1.5,0.4c-0.9,0.2-1.8,0.4-2.9,0.7c-1,0.3-1.9,0.6-2.6,0.9
		c-0.7,0.3-1.2,0.5-1.3,0.7c-0.1,0.2-0.6,0.7-1.3,1.5c-0.7,0.9-1.5,1.8-2.2,2.9c-0.7,1-1.4,2-2,2.9c-0.6,0.9-1.3,2.1-2.2,3.5
		c0.6-0.3,1.2-0.6,1.8-0.9c-0.3,0.3-0.5,0.7-0.7,1.3c-0.2,0.6-0.2,1-0.2,1.3c0.3,0,0.7-0.1,1.1-0.4c0.4-0.3,1.1-0.7,2-1.1
		c0.9-0.4,1.8-0.9,2.9-1.3c1-0.4,2.1-0.9,3.3-1.3c1.2-0.4,2.1-0.7,2.9-0.9c0.7-0.1,1.3-0.2,1.8-0.2c0.4,0,0.9,0.1,1.3,0.2
		c0.4,0.2,0.9,0.4,1.3,0.9c0.4,0.4,0.7,0.8,0.9,1.1c0.1,0.3,0.2,0.6,0.2,0.9c0,0.3-0.1,0.7-0.2,1.1c-0.2,0.4-0.4,1-0.9,1.8
		c-0.4,0.7-1,1.4-1.5,2c-0.6,0.6-1.6,1.5-3.1,2.6h1.3c0,0.3,0.1,0.6,0.2,0.9c0.1,0.3,0.2,0.6,0.2,0.9c0,0.3-0.2,0.6-0.7,0.9
		c-0.4,0.3-1,0.6-1.5,0.9c-0.6,0.3-1,0.6-1.3,0.9c0.3,0.6,0.5,1.2,0.7,1.8c0.1,0.6,0.2,1.2,0.2,2c0,0.7-0.1,1.4-0.2,2
		c-0.2,0.6-0.4,1.1-0.7,1.5c-0.3,0.4-0.7,0.9-1.1,1.3c-0.4,0.4-1,0.9-1.8,1.5c-0.7,0.6-1.4,1.1-2,1.5c-0.6,0.4-1,0.7-1.3,0.9
		c-0.3,0.2-0.6,0.2-0.9,0.2c0.3-0.9,0.4-1.4,0.4-1.5c0-0.2-0.1-0.4-0.2-0.7c-0.2-0.3-0.4-0.6-0.7-0.9c-0.3-0.3-0.7-0.7-1.3-1.1
		c-0.6-0.4-1.2-0.8-1.8-1.1c-0.3,0.6-0.5,1-0.7,1.1c-0.2,0.1-0.4,0.4-0.9,0.7c-0.4,0.3-0.9,0.5-1.3,0.7c-0.4,0.2-0.8,0.2-1.1,0.2
		c-0.3,0-0.6-0.1-0.9-0.2c-0.3-0.1-0.5-0.3-0.7-0.4c-0.1-0.1-0.3-0.5-0.4-1.1c-0.1-0.6-0.2-1.1-0.2-1.5c0-0.4,0.2-0.8,0.4-1.1
		c0.3-0.3,0.6-0.5,0.9-0.7c0.3-0.2,0.5-0.2,0.7-0.2c0.2,0,0.7,0.1,1.5,0.2c0.9,0.1,1.6,0.2,2.2,0.2c0.6,0,2.2-0.2,4.8-0.4l-4,1.3
		c0.6,0.6,1.1,1,1.5,1.3c0.4,0.3,0.9,0.5,1.3,0.7c0.4,0.1,0.8,0.2,1.1,0.2c0.3,0,0.5,0,0.7,0c0.2,0,0.3,0.1,0.4,0.4
		c0.2,0.3,0.3,0.4,0.4,0.4c0.2,0,0.4-0.1,0.7-0.2c0.3-0.1,0.6-0.4,0.9-0.7c0.3-0.3,0.6-0.7,0.9-1.1c0.3-0.4,0.5-1,0.7-1.5
		c0.2-0.6,0.2-1,0.2-1.3c0-0.3-0.1-0.7-0.2-1.3c-0.1-0.6-0.4-1.1-0.7-1.5c-0.3-0.4-0.5-0.7-0.7-0.9c-0.2-0.2-0.3-0.2-0.4-0.2
		c-0.1,0-0.7,0.1-1.5,0.2c-0.9,0.1-1.5,0.2-2,0.2c-0.4,0-0.8-0.1-1.1-0.2c-0.3-0.2-0.5-0.4-0.7-0.7c-0.1-0.3-0.2-0.6-0.2-0.9
		s0.1-0.7,0.4-1.3c-0.6,0-1-0.1-1.3-0.2c-0.3-0.1-0.7-0.5-1.1-1.1c-0.4-0.6-0.8-1.2-1.1-1.8C72.3,77,72,76.1,71.7,75
		c-1.2,1.5-2,2.6-2.4,3.3c-0.4,0.7-0.9,1.5-1.3,2.4c-0.4,0.9-0.9,1.8-1.5,2.6c-0.6,0.9-1.2,1.8-1.8,2.6c-0.6,0.9-1,1.7-1.3,2.4
		c-0.3,0.7-0.5,1.4-0.7,2c-0.2,0.6-0.4,1.2-0.7,1.8c-0.3,0.6-0.6,1-0.9,1.3c-0.3,0.3-0.6,0.5-0.9,0.7c-0.3,0.1-0.6,0.2-0.9,0.2
		c-0.3,0-0.6-0.1-0.9-0.2c-0.3-0.2-0.6-0.4-0.9-0.7c-0.3-0.3-0.6-0.7-0.9-1.3c-0.3-0.6-0.5-1.2-0.7-1.8c-0.1-0.6-0.3-1-0.4-1.3
		c-0.2-0.3-0.2-0.7-0.2-1.3h0.4c-0.3-1.2-0.4-1.9-0.4-2.2c0-0.3,0.1-0.9,0.4-1.8c0.3,0.6,0.5,1,0.7,1.1c0.1,0.1,0.3,0.2,0.4,0.2
		c0.1,0,0.3-0.1,0.4-0.2c0.2-0.1,0.4-0.6,0.9-1.3c0.4-0.7,1-1.5,1.5-2.4c0.6-0.9,1.2-1.7,1.8-2.4c0.6-0.7,1.1-1.3,1.5-1.8
		c0.4-0.4,0.9-1,1.5-1.5c-0.3,0.6-0.9,1.6-1.8,3.1c-0.9,1.5-1.6,2.7-2.2,3.7c-0.6,1-1,1.8-1.1,2.2c-0.2,0.4-0.2,0.8-0.2,1.1
		c0,0.3,0.1,0.7,0.2,1.1c0.1,0.4,0.3,1,0.4,1.5c0.1,0.6,0.3,1,0.4,1.1c0.1,0.2,0.3,0.2,0.4,0.2c0.2,0,0.3-0.1,0.4-0.2
		c0.2-0.1,0.4-0.6,0.7-1.3c0.3-0.7,0.7-1.6,1.3-2.6c0.6-1,1.2-2,1.8-3.1c0.6-1,1.2-2.1,1.8-3.1c0.6-1,1.2-2.1,1.8-3.3
		c0.6-1.2,1.2-2.2,1.8-3.1c0.6-0.9,1.2-1.8,1.8-2.9c0.6-1,1.2-2.1,2-3.1c0.7-1,1.5-2,2.2-2.9c0.7-0.9,1.7-1.9,2.9-3.1
		c-1.5,0.3-2.9,0.7-4.2,1.1c-1.3,0.4-2.3,0.8-3.1,1.1c-0.7,0.3-1.2,0.5-1.3,0.7c-0.2,0.2-0.3,0.2-0.4,0.2c-0.2,0-0.4-0.2-0.7-0.4
		C69.2,63.2,69,63,69,62.8c0-0.2,0.1-0.4,0.4-0.7c0.3-0.3,0.7-0.7,1.3-1.1c0.6-0.4,1.2-0.8,1.8-1.1C73.1,59.7,73.4,59.5,73.4,59.5
		L73.4,59.5z M58.9,61.3L58.9,61.3c0-0.6,0.1-1,0.2-1.3c0.2-0.3,0.4-0.6,0.9-0.9c0.4-0.3,0.9-0.6,1.5-0.9c0.6-0.3,1-0.5,1.3-0.7
		c0.3-0.1,0.6-0.2,0.9-0.2c0.3,0,0.6,0.1,0.9,0.2c0.3,0.2,0.5,0.4,0.7,0.7c0.2,0.3,0.2,0.6,0.2,0.9c0,0.3,0.1,0.7,0.2,1.3
		c0.2,0.6,0.2,1,0.2,1.3c0,0.3-0.1,0.6-0.2,0.9c-0.2,0.3-0.4,0.6-0.7,0.9c-0.3,0.3-0.7,0.5-1.1,0.7c-0.4,0.2-0.9,0.2-1.3,0.2
		c-0.4,0-0.8,0.1-1.1,0.2c-0.3,0.2-0.6,0.2-0.9,0.2c-0.3,0-0.5-0.1-0.7-0.2c-0.2-0.1-0.2-0.4-0.2-0.7c0-0.3-0.1-0.7-0.2-1.1
		c-0.2-0.4-0.3-0.8-0.4-1.1C59,61.5,58.9,61.3,58.9,61.3L58.9,61.3z M80,67.5L80,67.5c-1.2,0.9-2.2,1.6-3.1,2.2
		c1.2-1.2,2.1-2,2.6-2.4c0.6-0.4,0.9-0.7,1.1-0.9c0.1-0.1,0.3-0.4,0.4-0.7c0.1-0.3,0.2-0.7,0.2-1.1c0-0.4,0.2-0.8,0.4-1.1
		c0.3-0.3,0.6-0.4,0.9-0.4c0.3,0,0.6,0.1,0.9,0.2c0.3,0.1,0.6,0.4,0.9,0.7c0.3,0.3,0.4,0.5,0.4,0.7c0,0.2-0.1,0.4-0.2,0.7
		c-0.2,0.3-0.4,0.7-0.7,1.1c-0.3,0.4-0.6,0.8-0.9,1.1c-0.3,0.3-0.6,0.5-0.9,0.7c-0.3,0.2-0.5,0.2-0.7,0.2c-0.2,0-0.3-0.2-0.4-0.4
		c-0.1-0.3-0.4-0.4-0.7-0.4C80.2,67.5,80,67.5,80,67.5L80,67.5z M53.6,74.1L53.6,74.1c0-0.6,0.1-1.2,0.2-2c0.2-0.7,0.3-1.3,0.4-1.8
		c0.2-0.4,0.4-0.9,0.7-1.3c0.3-0.4,0.5-0.8,0.7-1.1c0.2-0.3,0.4-0.5,0.7-0.7c0.3-0.1,0.6-0.2,0.9-0.2s0.6,0.1,0.9,0.2
		c0.3,0.2,0.5,0.4,0.7,0.7c0.2,0.3,0.3,0.7,0.4,1.3c0.2,0.6,0.2,1.3,0.2,2.2c0,0.9-0.1,1.5-0.2,2c-0.1,0.4-0.3,0.7-0.4,0.9
		c-0.2,0.2-0.4,0.3-0.7,0.4c-0.3,0.2-0.7,0.3-1.3,0.4c-0.6,0.2-1,0.2-1.3,0.2c-0.3,0-0.6-0.1-0.9-0.2c-0.3-0.1-0.5-0.4-0.7-0.7
		C53.7,74.2,53.6,74.1,53.6,74.1L53.6,74.1z M80,79.8L80,79.8c0.6,0,1.1-0.1,1.5-0.2c0.4-0.2,0.7-0.4,0.9-0.7
		c0.2-0.3,0.4-0.6,0.7-0.9c0.3-0.3,0.7-0.5,1.1-0.7c0.4-0.2,0.9-0.4,1.5-0.9c0.6-0.4,1.1-0.9,1.5-1.3c0.4-0.4,0.7-0.8,0.9-1.1
		c0.1-0.3,0.2-0.7,0.2-1.3c0-0.6-0.1-0.9-0.2-1.1c-0.2-0.1-0.4-0.2-0.7-0.2c-0.3,0-0.8,0.1-1.5,0.4c-0.7,0.3-1.5,0.6-2.4,0.9
		c-0.9,0.3-1.6,0.5-2.2,0.7c-0.6,0.1-1,0.5-1.3,1.1c1.5,0,2.5,0.2,3.1,0.4c0,0.6,0.1,0.9,0.2,1.1c0.2,0.2,0.2,0.4,0,0.7
		c-0.2,0.3-0.3,0.5-0.4,0.7c-0.1,0.1-0.4,0.3-0.9,0.4c-0.4,0.2-0.8,0.4-1.1,0.7c-0.3,0.3-0.5,0.6-0.7,0.9C80.1,79.7,80,79.8,80,79.8
		L80,79.8z M79.2,78.5L79.2,78.5l0.4-0.9c-0.6,0-1-0.1-1.1-0.2c-0.1-0.2-0.2-0.4-0.2-0.7c0-0.3,0.1-0.5,0.2-0.7
		c0.2-0.2,0.3-0.4,0.4-0.7c0.2-0.3,0.4-0.5,0.7-0.7c0.3-0.1,0.6-0.5,0.9-1.1c-2.3,0.6-3.7,1-4.2,1.1c-0.4,0.2-0.7,0.3-0.9,0.4
		c-0.1,0.2-0.2,0.4-0.2,0.7c0,0.3,0.1,0.7,0.2,1.1c0.2,0.4,0.3,0.7,0.4,0.9c0.2,0.2,0.2,0.4,0.2,0.7c0,0.3,0.1,0.6,0.4,0.9
		c0.3,0.3,1,0.4,2.2,0.4L79.2,78.5L79.2,78.5z M89.3,89.9L89.3,89.9c-0.3-0.3-0.6-0.6-0.9-0.9c-0.3-0.3-0.7-0.6-1.3-0.9v-0.4
		c0.9-0.3,1.5-0.6,1.8-0.9c0.3-0.3,0.4-0.6,0.4-0.9c0-0.3,0.1-0.6,0.2-0.9c0.2-0.3,0.4-0.5,0.7-0.7c0.3-0.2,0.6-0.2,0.9-0.2
		c0.3,0,0.6,0.1,0.9,0.2c0.3,0.1,0.5,0.4,0.7,0.7c0.2,0.3,0.2,0.7,0.2,1.1c0,0.4-0.1,0.8-0.2,1.1c-0.1,0.3-0.3,0.6-0.4,0.9
		c-0.2,0.3-0.4,0.6-0.7,0.9c-0.3,0.3-0.7,0.5-1.1,0.7c-0.4,0.2-0.7,0.2-0.9,0.2C89.4,89.9,89.3,89.9,89.3,89.9L89.3,89.9z"/>
</g>
</svg>
